<svg xmlns="http://www.w3.org/2000/svg" viewBox="0 0 1219 684">
  <path fill="currentColor" d="M937 4c24-8 45 13 59 28 23-10 53-10 73 9 13 11 0 43 18 34 24-12 66 5 65 36 8 12-17 40-4 38 41-12 70 34 53 67-3 14-24 27-31 36-16 7-36 3-52 10-12 12-8 26-17 42-11 17-26 37 1 22 21-3 21-20 31-36 4-19 16-23 29-29 22-17 73 2 51 37-1 14-14 26-27 37-40 1-2 20-20 41-22 23-69-15-46 28-6 33-50 27-71 18-33-6-14-70-44-54-26 14-42 37-54 63-19 26 13 31 33 47 13 13 20 34 14 54 3 22-21 33-31 43-13 3 9 31 6 40 13 18 34 29 49 28 19 2 65 13 53 28a74 74 0 0 0-48-18c-15-4-29-5-41-11-29-25-38-69-30-105 9-18-24-54-19-24-6 36 1 76-16 109-9 15-22 23-42 29-16 2-39 5-57 13-27 16 11-24 35-18 18-5 59-6 45-32-10-19-5-42 6-54 26-2 17-29 21-49-10-31-60-12-82-37-13-7-26-16-32-33-6-18-6-38-1-52 6-24 21-38 43-47 26-16 73 17 48 39-16 13-54 3-51 25-2 34 37 37 61 42 20 12 26 0 22-20-1-22-6-43-13-62-9-26-13-42-32-55-15-15-65-35-73-11-4 27-4 59-31 77-15 9-39 22-59 7-19-7-19-27-19-45 19-34-12-13-32-31-18-23 0-50 24-60 25-4 9-9-4-17-14-6-19-22-19-38 2-21 14-34 30-44 34-1 38-1 25-30-2-25 10-41 33-47 29-9 52 15 49-25 9-14 23-21 38-22 15-11 39 12 46-2 8-6 21-23 37-19M249 8c25-12 57 2 71 25 12-7 33-12 51-4 22 1 17 35 31 38 27-5 70 11 60 46 11 13 46 18 50 49 8 33-21 52 16 73 7 28-7 49-26 64-35 6 1 17 0 40-1 20-18 38-35 42-26 9-55 5-76-11-14-11-37-26-60-16-35 13-47 51-46 87 0 23-1 42 1 65 2 32 3 68 22 93 7 14 27 33 47 37 25 8 57 6 72 29-9 7-27-17-44-14-28-6-62-12-77-39-27-34-26-79-30-121 2-34-1-69 8-103 5-13 10-28 18-33 8-15 22-28 35-34 14-17 45-19 51-40 18-9 4-25-15-16-35-6-63 21-77 41-7 14-19 32-21 51-6 8-4 79-9 45-1-22-2-36-9-54-9-22-26-52-42-65-16-18-53-22-78-18-3 13 19 28 30 38 22 11 53 25 62 48 13 15 22 41 24 59 8 29 4 74 4 108-1 19-7 39-10 56-5 21-22 41-34 55-15 9-35 20-57 22-29 5-73 26-30-3 20-7 47-7 65-18 23-9 33-26 45-47 8-22 9-42 12-66s1-49 3-73c-5-16 0-36-11-50-10-37-61-58-91-29-21 18-60 28-88 13-17-4-32-21-33-38-7-16 29-31 8-38-20-13-35-31-34-56-1-26 36-26 19-52-10-29 10-63 33-72 24 0 5-34 26-45 16-9 35-12 54-9-4-27 31-55 61-41 22 18 22-9 41-16 5 0 8-6 13-3m703 3c-21-7-44 8-48 26-21 35 30 62 24 96 0 32 16 35 21 6 12-24-14-45-11-69 4-40 11 9 12 26 9 33 26-6 33-13 14-27 4-69-31-72M311 33a65 65 0 0 0-57-22c-4 4-22 9-32 19-4 10-13 22-12 37 3 19 11 51-7 14 9-33-3-61-43-45-46 28 15 43 29 68 30 30-7 66 3 95 19 41 16 83 55 113 7 16 21 37 16 6 0-17-2-34-1-52-13-21-44-36-50-62-9-30-1-62 17-87 8-17 18-27 27-49 9-23 14-23 22 1 16 38 52 72 45 117 3 27-22 51-41 65-22 12-1 77-6 81 7-23 25-45 42-60 9-23 8-51 23-73 12-12-9-34-9-52-4-25 10-51 29-65 16-8 38-12 21-32-7-26-77-25-54 10 4 36-17 44-8 5 3-14-9-24-9-32m567-1c-24-6-60 5-56 33-4 24 28 41 21 68-3 38 64 39 63 84 8 40 25-21 29-33 2-34-33-29-54-44a63 63 0 0 1-28-68c7-19 52 22 41-1-7-17 11-39-16-39m162 3c-14-2-38-6-43 10 2 11-7 30 0 34 28-23 53 0 38 30-9 20-26 36-42 45-20 10-43 35-5 19 23-9 60-11 56-44-2-17 10-29 19-44 14-12 3-53-23-50m-740 85c-14-14-20-37-34-51-17 25-35 54-48 82-7 32 3 73 34 91 18 24 11-29 14-45-7-19-7-37-4-57 14-5 1 39 10 54 9 12-8 58 6 50 14-7 28-20 34-37 7-22 2-45-1-67-5-6-9-13-11-20M167 91c-23-20-68-26-90-1-5 15 1 43 18 55 17 20 33 14 55 22-14-17-30-64-5-23 9 14 34 50 39 28 8-9 12-34 6-46 3-12-11-33-23-35m239-16c-27-2-53 18-64 42-3 17-6 43 8 58 3 16 33-17 37-33 26-38 2 12-2 23 30 2 65-23 70-55 10-26-28-42-49-35m385 2c-34-8-63 28-44 60 16 30 51 26 79 21 6-6-27-19-38-30-20-31 21 11 35 16 22 18 11-25 10-34-3-19-24-36-42-33m90 4c-34-19-23 28-9 42 19 32 69 24 45-14-10-8-19-26-35-28Zm150-5c-18 4-39 6-51 23-15 14-21 34-29 53-1 9-14 36 1 27 19-23 56-36 66-59 12-6 11-30 13-44m103 11c-25-16-63-6-76 18-5 13-20 55 10 36 11-2 49-40 29-11-6 11-52 22-38 29 24 10 58 11 72-8 15-17 21-46 3-64M75 127c-18-6-33 11-41 23-9 18-11 38 0 56 25 6 50 12 41-22 21-17 41-21 9-41-3-6-8-10-9-16m384-2c-12 23-50 39-7 54 16 14-10 46 24 30 45 3 33-60 7-76-8-5-15-5-24-8m283 31c-17-8-40 3-48 13-2 10-9 17-6 32 2 27 36 39 60 37 33 3 9-13-5-25-28-28 0-13 14 3 10 11 36 30 27 1 4-26-10-54-37-62l-3 1zm440 7c-29-20-69 5-78 38-4 18 8 65 20 27 9-17 54-46 21-14-4 6-36 39-17 36 21 0 36-2 52-17 17-16 27-51 6-70h-3zm-74 16c-25-4-54-23-81-13-16 4 37 33 2 15-24-6-57-1-74 13-31 14-40 53-40 86 3 49 25 94 31 142 9-16 29-48 52-58 13-4 30-9 43-15 13-5 29-11 35-23 19-16 38-59 25-87-8-19-7-44 7-60m-240-6c-22-14-46-9-70-4-32-1 7 49-7 65-1 12 45 29 31 11-21-25 3-87 33-45 16 20 22 51 8 71 16 14 44 40 49 39-5-15-4-35-6-53-1-23-8-46-19-65-6-7-11-14-19-19m-727 0c-30-13-76 9-52 46 16 29 55 44 83 36-1 5-43-67-15-30 13 29 63 54 39 2-6-26-24-54-55-54m297 1c-30-6-68-5-86 19-11 16-13 30-20 42-14 42 27 17 39-4 38-44-8 23-9 24 30 4 63-5 79-32 10-14 16-40-3-49m582-1c-4-4-3-3 0 0m-58 10c-4-4-3-3 0 0m-124 11c-27 1-15 46-2 57 24 36 34-9 23-28-1-13-11-22-21-29m176 27c-3-27 13-22 7 0 32-14 65 14 60 47-5 21-10 40-26 52-19 15-43 12-66 8a73 73 0 0 1-34-49c-4-16-1-33 7-48 12-7 27-18 43-12zm-886 52c-17-27-55-65-93-57-11 5-22 15-24 26-7 17 10 47 31 54 19 8 40 1 59 0 1-18-46-21-30-32 22 8 43 41 74 35 0-8-13-16-17-26m366-55c-15-2-33-2-46 6-4 16-32 27-43 39 2 14-22 28-16 35 19 1 37-5 49-20 6-12 43-16 21-6-10 4-40 26-14 26 18 0 39 8 52-7 9-2 21-16 25-33 4-19-9-40-28-40m529 10c-19 1-68-9-61 35-3 21 25 76 51 54 16 14 48-2 53-28 5-16 12-42-5-54-8-11-25-12-38-7m-109 11c-4-4-3-3 0 0m-127 10c-16-9-60-6-24 14 16 27 55 6 81 18 23 9 26 6 6-7-19-7-39-20-59-26l-3 1zm-43 0c-4-4-3-3 0 0m-12 4c-33-9-68 23-45 51 33 18 48-18 77-24-6-12-16-28-32-27m-595 11c-4-4-3-3 0 0m263 0c-4-4-3-3 0 0m807 10c-16-26-58-3-68 15-12 24-7 29 10 14 31-12 13 2 1 8-12 2-18 18 4 21 22 6 40-12 52-29 1-7 7-21 1-29m-396 11c-29-4-61 0-81 23-6 13-16 33-11 50 0 25 34 30 52 19 17-3 24-17 30-30 5-19 12-34 9-49-9 3-33 17-42 30-8 21-24 11-3-5 13-15 32-29 47-37 8 0 7-4-1-1m-661 16c-4-4-3-3 0 0m25 13c-42-11-91-21-129 4-22 21-1 53 26 56 29 8 56 0 77-19 7-6 39-11 12-13-24-1-77-2-26-10 32 0 62 9 89 25-3-16-34-32-49-43m226-9c-23-1-49 11-63 23-27 14-40 47-6 17 23-9 48-13 75-12 54 16-77-1-30 19 21 17 43 29 71 25 28 1 57-29 41-54-14-19-47-19-74-19-4 0-10-2-14 1m734 20c-4-4-3-3 0 0m-10 4c-7 5-38 4-45 15-17 2 19 9 23 17 13 9 25 19 42 15 28 0 20-34-1-40-4-7-19-1-19-7m-763 17c-4-4-3-3 0 0m543 22c-3-27-53-26-62-9-23 15-27 50-22 76 11 32 41 39 70 47 25 8 58 5 72 31-1 25-7 75 19 36 11-8 13-30 8-43-5-32-42-41-68-47-24-6-50-10-67-25-24-27 2-62 35-55 4-6 12-4 15-11m148-13c-49-3 42 38 10 34-14-23-54-21-23 13 13 21 39 22 62 17 18-14 5-47-12-57-12-5-25-10-37-7m-826 5c-4-4-3-3 0 0m798 5c-4-4-3-3 0 0M924 564c-30-7-21 68-5 43 5-14 2-28 5-43m-651 43c17 19 29 48 57 57 14 19-29-3-36-13-10-13-22-26-21-44m-19 4c15 13-17 43-32 53-4 1-41 18-21 1 20-3 29-22 44-32 1-11 8-9 9-22m688 18c12 20 34 35 52 44 39 7-10 14-20-3-14-11-40-27-46-5-7 7-54 24-42 11 13-6 33-11 43-25 6-6 11-11 13-22m4 16c-10 0 0 10 0 0"/>
</svg>
